# Blender v3.4.1 OBJ File: 'Muntje.blend'
# www.blender.org
mtllib Muntje.mtl
o Cylinder.033
v 4.088838 3.151704 1.223007
v 3.992915 3.065328 1.232871
v 3.896992 3.065328 1.223007
v 3.804755 3.065328 1.193794
v 3.719749 3.065328 1.146354
v 3.645241 3.065328 1.082511
v 3.584094 3.065328 1.004718
v 3.538657 3.065328 0.915965
v 3.510677 3.065328 0.819662
v 3.501230 3.065328 0.719511
v 3.510677 3.065328 0.619359
v 3.538657 3.065328 0.523056
v 3.584094 3.065328 0.434303
v 3.645241 3.065328 0.356510
v 3.719749 3.065328 0.292667
v 3.804755 3.065328 0.245227
v 3.992915 3.065328 0.206150
v 4.088838 3.065328 0.216014
v 4.181075 3.065328 0.245227
v 4.266081 3.065328 0.292667
v 4.340589 3.065328 0.356510
v 4.401736 3.065328 0.434303
v 4.447173 3.065328 0.523056
v 4.475152 3.065328 0.619359
v 4.484600 3.065328 0.719511
v 4.475152 3.065328 0.819662
v 4.447173 3.065328 0.915965
v 4.401736 3.065328 1.004718
v 4.340589 3.065328 1.082511
v 4.266081 3.065328 1.146354
v 4.181075 3.065328 1.193794
v 4.088838 3.065328 1.223007
v 3.992915 3.151704 1.232871
v 3.896992 3.151704 1.223007
v 3.804755 3.151704 1.193794
v 3.719749 3.151704 1.146354
v 3.645241 3.151704 1.082511
v 3.584094 3.151704 1.004718
v 3.538657 3.151704 0.915965
v 3.510677 3.151704 0.819662
v 3.501230 3.151704 0.719511
v 3.510677 3.151704 0.619359
v 3.538657 3.151704 0.523056
v 3.584094 3.151704 0.434303
v 3.645241 3.151704 0.356510
v 3.719749 3.151704 0.292667
v 3.804755 3.151704 0.245227
v 3.896992 3.151704 0.216014
v 3.896992 3.065328 0.216014
v 3.982472 3.075826 0.207224
v 4.003358 3.075826 0.207224
v 3.992915 3.065328 0.206150
v 3.992915 3.151704 0.216704
v 4.003358 3.141206 0.207224
v 3.982472 3.141206 0.207224
v 4.098846 3.075826 0.219184
v 4.088838 3.065328 0.216014
v 4.078395 3.075826 0.214940
v 4.086694 3.151704 0.226347
v 4.098846 3.141206 0.219184
v 4.078395 3.141206 0.214940
v 4.190242 3.075826 0.250343
v 4.181075 3.065328 0.245227
v 4.171067 3.075826 0.242058
v 4.176889 3.151704 0.254914
v 4.190242 3.141206 0.250343
v 4.171067 3.141206 0.242058
v 4.274053 3.075826 0.299498
v 4.266081 3.065328 0.292667
v 4.256914 3.075826 0.287551
v 4.260047 3.151704 0.301322
v 4.274053 3.141206 0.299498
v 4.256914 3.141206 0.287551
v 4.347076 3.075826 0.364764
v 4.340589 3.065328 0.356510
v 4.332617 3.075826 0.349679
v 4.332974 3.151704 0.363810
v 4.347076 3.141206 0.364764
v 4.332617 3.141206 0.349679
v 4.406520 3.075826 0.443648
v 4.401736 3.065328 0.434303
v 4.395249 3.075826 0.426049
v 4.392855 3.151704 0.439991
v 4.406520 3.141206 0.443648
v 4.395249 3.141206 0.426049
v 4.450102 3.075826 0.533137
v 4.447173 3.065328 0.523056
v 4.442389 3.075826 0.513711
v 4.437371 3.151704 0.526948
v 4.450102 3.141206 0.533137
v 4.442389 3.141206 0.513711
v 4.476139 3.075826 0.629811
v 4.475152 3.065328 0.619359
v 4.472224 3.075826 0.609278
v 4.464794 3.151704 0.621334
v 4.476139 3.141206 0.629811
v 4.472224 3.141206 0.609278
v 4.483614 3.075826 0.729962
v 4.484600 3.065328 0.719511
v 4.483614 3.075826 0.709059
v 4.474056 3.151704 0.719511
v 4.483614 3.141206 0.729962
v 4.483614 3.141206 0.709059
v 4.472224 3.075826 0.829744
v 4.475152 3.065328 0.819662
v 4.476139 3.075826 0.809210
v 4.464794 3.151704 0.817687
v 4.472224 3.141206 0.829744
v 4.476139 3.141206 0.809210
v 4.442389 3.075826 0.925310
v 4.447173 3.065328 0.915965
v 4.450102 3.075826 0.905884
v 4.437371 3.151704 0.912073
v 4.442389 3.141206 0.925310
v 4.450102 3.141206 0.905884
v 4.395249 3.075826 1.012972
v 4.401736 3.065328 1.004718
v 4.406520 3.075826 0.995374
v 4.392855 3.151704 0.999030
v 4.395249 3.141206 1.012972
v 4.406520 3.141206 0.995374
v 4.332617 3.075826 1.089342
v 4.340589 3.065328 1.082511
v 4.347076 3.075826 1.074258
v 4.332974 3.151704 1.075211
v 4.332617 3.141206 1.089342
v 4.347076 3.141206 1.074258
v 4.256914 3.075826 1.151470
v 4.266081 3.065328 1.146354
v 4.274053 3.075826 1.139523
v 4.260047 3.151704 1.137699
v 4.256914 3.141206 1.151470
v 4.274053 3.141206 1.139523
v 4.171067 3.075826 1.196964
v 4.181075 3.065328 1.193794
v 4.190242 3.075826 1.188678
v 4.176889 3.151704 1.184107
v 4.171067 3.141206 1.196964
v 4.190242 3.141206 1.188678
v 4.098846 3.075826 1.219837
v 4.088838 3.065328 1.223007
v 3.992915 3.151704 1.222317
v 3.992915 3.151704 1.232871
v 3.899136 3.151704 1.212674
v 3.896992 3.151704 1.223007
v 3.808941 3.151704 1.184107
v 3.804755 3.151704 1.193794
v 3.725782 3.151704 1.137699
v 3.719749 3.151704 1.146354
v 3.652856 3.151704 1.075211
v 3.645241 3.151704 1.082511
v 3.592975 3.151704 0.999030
v 3.584094 3.151704 1.004718
v 3.548458 3.151704 0.912073
v 3.538657 3.151704 0.915965
v 3.521036 3.151704 0.817687
v 3.510677 3.151704 0.819662
v 3.511774 3.151704 0.719511
v 3.501230 3.151704 0.719511
v 3.521036 3.151704 0.621334
v 3.510677 3.151704 0.619359
v 3.548458 3.151704 0.526948
v 3.538657 3.151704 0.523056
v 3.592975 3.151704 0.439991
v 3.584094 3.151704 0.434303
v 3.652856 3.151704 0.363810
v 3.645241 3.151704 0.356510
v 3.725782 3.151704 0.301322
v 3.719749 3.151704 0.292667
v 3.808941 3.151704 0.254914
v 3.804755 3.151704 0.245227
v 3.907435 3.075826 0.214940
v 3.896992 3.065328 0.216014
v 3.907435 3.141206 0.214940
v 3.896992 3.151704 0.216014
v 3.899136 3.151704 0.226347
v 4.086694 3.151704 1.212674
v 4.088838 3.151704 1.223007
v 4.098846 3.141206 1.219837
v 4.424455 3.065328 0.478679
v 4.424455 3.141206 0.478679
v 4.415113 3.151704 0.483469
v 4.424455 3.075826 0.478679
v 4.424455 3.065328 0.478679
vt 1.000000 0.500000
vt 0.968750 0.500000
vt 0.968750 0.500000
vt 1.000000 0.500000
vt 0.937500 0.500000
vt 0.937500 0.500000
vt 0.812500 0.500000
vt 0.781250 0.500000
vt 0.781250 0.500000
vt 0.812500 0.500000
vt 0.750000 0.500000
vt 0.750000 0.500000
vt 0.718750 0.500000
vt 0.687500 0.500000
vt 0.687500 0.500000
vt 0.718750 0.500000
vt 0.656250 0.500000
vt 0.656250 0.500000
vt 0.593750 0.500000
vt 0.562500 0.500000
vt 0.562500 0.500000
vt 0.593750 0.500000
vt 0.531250 0.500000
vt 0.531250 0.500000
vt 0.531250 1.000000
vt 0.500000 1.000000
vt 0.500000 0.500000
vt 0.468750 1.000000
vt 0.468750 0.500000
vt 0.437500 1.000000
vt 0.437500 0.500000
vt 0.406250 1.000000
vt 0.406250 0.500000
vt 0.375000 1.000000
vt 0.375000 0.500000
vt 0.343750 1.000000
vt 0.343750 0.500000
vt 0.312500 1.000000
vt 0.312500 0.500000
vt 0.281250 1.000000
vt 0.281250 0.500000
vt 0.250000 1.000000
vt 0.250000 0.500000
vt 0.218750 1.000000
vt 0.218750 0.500000
vt 0.187500 1.000000
vt 0.187500 0.500000
vt 0.156250 1.000000
vt 0.156250 0.500000
vt 0.125000 1.000000
vt 0.125000 0.500000
vt 0.093750 1.000000
vt 0.093750 0.500000
vt 0.062500 1.000000
vt 0.062500 0.500000
vt 0.965359 0.560770
vt 0.965359 0.939230
vt 0.940891 0.939230
vt 0.940891 0.560770
vt 0.031250 1.000000
vt 0.031250 0.500000
vt 0.031250 0.500000
vt 0.000000 0.500000
vt 0.000000 0.500000
vt 0.750000 0.490000
vt 0.796822 0.485388
vt 0.841844 0.471731
vt 0.883337 0.449553
vt 0.919706 0.419706
vt 0.949553 0.383337
vt 0.960642 0.362590
vt 0.971731 0.341844
vt 0.985388 0.296822
vt 0.990000 0.250000
vt 0.985388 0.203178
vt 0.971731 0.158156
vt 0.949553 0.116663
vt 0.919706 0.080294
vt 0.883337 0.050447
vt 0.841844 0.028269
vt 0.796822 0.014612
vt 0.750000 0.010000
vt 0.703178 0.014612
vt 0.658156 0.028269
vt 0.616663 0.050447
vt 0.580294 0.080294
vt 0.550447 0.116663
vt 0.528269 0.158156
vt 0.514612 0.203178
vt 0.510000 0.250000
vt 0.514612 0.296822
vt 0.528269 0.341844
vt 0.550447 0.383337
vt 0.580294 0.419706
vt 0.616663 0.449553
vt 0.658156 0.471731
vt 0.703178 0.485388
vt 0.295775 0.480558
vt 0.250000 0.485066
vt 0.204225 0.480558
vt 0.160199 0.467203
vt 0.119608 0.445506
vt 0.084011 0.416293
vt 0.054783 0.380677
vt 0.033053 0.340025
vt 0.019668 0.295898
vt 0.015147 0.250000
vt 0.019668 0.204102
vt 0.033053 0.159975
vt 0.054783 0.119323
vt 0.084011 0.083707
vt 0.119608 0.054494
vt 0.160199 0.032797
vt 0.204225 0.019442
vt 0.250000 0.014934
vt 0.295775 0.019442
vt 0.339801 0.032797
vt 0.380392 0.054494
vt 0.415989 0.083707
vt 0.445217 0.119323
vt 0.466947 0.159975
vt 0.480332 0.204102
vt 0.484853 0.250000
vt 0.480332 0.295898
vt 0.466947 0.340025
vt 0.456082 0.360351
vt 0.445217 0.380677
vt 0.415989 0.416293
vt 0.380392 0.445506
vt 0.339801 0.467202
vt 0.934130 0.560770
vt 0.934130 0.939230
vt 0.909620 0.939230
vt 0.909620 0.560770
vt 0.902906 0.560770
vt 0.902906 0.939230
vt 0.878344 0.939230
vt 0.878344 0.560770
vt 0.871684 0.560770
vt 0.871684 0.939230
vt 0.847066 0.939230
vt 0.847066 0.560770
vt 0.828125 0.560770
vt 0.828125 0.939230
vt 0.815790 0.939230
vt 0.815790 0.560770
vt 0.809229 0.560770
vt 0.809229 0.939230
vt 0.784521 0.939230
vt 0.784521 0.560770
vt 0.777989 0.560770
vt 0.777989 0.939230
vt 0.753261 0.939230
vt 0.753261 0.560770
vt 0.746739 0.560770
vt 0.746739 0.939230
vt 0.722011 0.939230
vt 0.722011 0.560770
vt 0.715479 0.560770
vt 0.715479 0.939230
vt 0.690771 0.939230
vt 0.690771 0.560770
vt 0.684210 0.560770
vt 0.684210 0.939230
vt 0.659540 0.939230
vt 0.659540 0.560770
vt 0.652934 0.560770
vt 0.652934 0.939230
vt 0.628316 0.939230
vt 0.628316 0.560770
vt 0.621656 0.560770
vt 0.621656 0.939230
vt 0.597094 0.939230
vt 0.597094 0.560770
vt 0.590380 0.560770
vt 0.590380 0.939230
vt 0.565870 0.939230
vt 0.565870 0.560770
vt 0.559109 0.560770
vt 0.559109 0.939230
vt 0.534641 0.939230
vt 0.534641 0.560770
vt 0.531250 1.000000
vt 0.296822 0.014612
vt 0.250000 0.010000
vt 0.250000 0.010000
vt 0.296822 0.014612
vt 0.203178 0.014612
vt 0.203178 0.014612
vt 0.158156 0.028269
vt 0.158156 0.028269
vt 0.116663 0.050447
vt 0.116663 0.050447
vt 0.080294 0.080294
vt 0.080294 0.080294
vt 0.050447 0.116663
vt 0.050447 0.116663
vt 0.028269 0.158156
vt 0.028269 0.158156
vt 0.014612 0.203178
vt 0.014612 0.203178
vt 0.010000 0.250000
vt 0.010000 0.250000
vt 0.014612 0.296822
vt 0.014612 0.296822
vt 0.028269 0.341844
vt 0.028269 0.341844
vt 0.050447 0.383337
vt 0.050447 0.383337
vt 0.080294 0.419706
vt 0.080294 0.419706
vt 0.116663 0.449553
vt 0.116663 0.449553
vt 0.158156 0.471731
vt 0.158156 0.471731
vt 0.203178 0.485388
vt 0.203178 0.485388
vt 0.031250 1.000000
vt 0.003402 0.560770
vt 0.000000 0.560770
vt 0.255097 0.489498
vt 0.244903 0.489498
vt 0.972152 0.560770
vt 0.301707 0.483907
vt 0.291724 0.485891
vt 0.346319 0.469339
vt 0.336959 0.473213
vt 0.906250 0.500000
vt 0.387228 0.446359
vt 0.378862 0.451944
vt 0.875000 0.500000
vt 0.422872 0.415847
vt 0.415814 0.422899
vt 0.840460 0.560770
vt 0.843750 0.500000
vt 0.451888 0.378968
vt 0.446386 0.387195
vt 0.473161 0.337131
vt 0.469396 0.346213
vt 0.485870 0.291935
vt 0.483959 0.301535
vt 0.489519 0.245114
vt 0.489519 0.254886
vt 0.483959 0.198465
vt 0.485870 0.208065
vt 0.469396 0.153787
vt 0.473161 0.162869
vt 0.446386 0.112805
vt 0.451888 0.121032
vt 0.625000 0.500000
vt 0.415814 0.077101
vt 0.422872 0.084153
vt 0.378862 0.048056
vt 0.387228 0.053641
vt 0.336959 0.026787
vt 0.346319 0.030661
vt 0.027848 0.939230
vt 0.030901 1.000000
vt 0.301707 0.016093
vt 0.003402 0.939230
vt 0.000000 0.939230
vt 0.972152 0.939230
vt 0.840460 0.939230
vt 0.460642 0.362590
vt 0.208276 0.485891
vt 0.996598 0.560770
vt 0.828125 0.500000
vt 0.027848 0.560770
vt 0.906250 0.500000
vt 0.875000 0.500000
vt 0.843750 0.500000
vt 0.828125 0.500000
vt 0.625000 0.500000
vt 0.996598 0.939230
vn 0.0000 0.0000 1.0000
vn 0.1023 0.0000 0.9948
vn -0.1023 0.0000 0.9948
vn -0.3019 0.0000 0.9533
vn -0.4873 0.0000 0.8732
vn -0.6507 0.0000 0.7594
vn -0.7862 0.0000 0.6180
vn -0.8901 0.0000 0.4557
vn -0.9603 0.0000 0.2790
vn -0.9956 0.0000 0.0939
vn -0.9956 0.0000 -0.0939
vn -0.9603 0.0000 -0.2790
vn -0.8901 0.0000 -0.4557
vn -0.7862 0.0000 -0.6180
vn -0.6507 0.0000 -0.7594
vn -0.4873 0.0000 -0.8732
vn 0.3019 0.0000 -0.9533
vn -0.3019 0.0000 -0.9533
vn 0.0000 -1.0000 -0.0000
vn 0.0000 1.0000 0.0000
vn 0.4873 0.0000 -0.8732
vn 0.6507 0.0000 -0.7594
vn 0.7862 0.0000 -0.6180
vn 0.8901 0.0000 -0.4557
vn 0.9603 0.0000 -0.2790
vn 0.9956 0.0000 -0.0939
vn 0.9956 0.0000 0.0939
vn 0.9603 0.0000 0.2790
vn 0.8901 0.0000 0.4557
vn 0.7862 0.0000 0.6180
vn 0.6507 0.0000 0.7594
vn 0.4873 0.0000 0.8732
vn 0.3019 0.0000 0.9533
vn 0.0000 0.1018 -0.9948
vn 0.0000 0.6702 -0.7422
vn 0.2021 0.1014 -0.9741
vn 0.1508 0.6703 -0.7266
vn 0.3947 0.1005 -0.9133
vn 0.2942 0.6707 -0.6809
vn 0.5690 0.0991 -0.8163
vn 0.4239 0.6712 -0.6081
vn 0.7185 0.0975 -0.6887
vn 0.5348 0.6718 -0.5126
vn 0.8382 0.0959 -0.5369
vn 0.6233 0.6724 -0.3992
vn 0.9252 0.0947 -0.3674
vn 0.6876 0.6728 -0.2730
vn 0.9780 0.0938 -0.1865
vn 0.7264 0.6732 -0.1385
vn 0.9956 0.0934 0.0000
vn 0.7394 0.6732 0.0000
vn 0.9780 0.0938 0.1865
vn 0.7264 0.6732 0.1385
vn 0.9252 0.0947 0.3674
vn 0.6876 0.6728 0.2730
vn 0.8382 0.0959 0.5369
vn 0.6233 0.6723 0.3992
vn 0.7185 0.0975 0.6887
vn 0.5348 0.6718 0.5126
vn 0.5690 0.0991 0.8163
vn 0.4239 0.6712 0.6081
vn 0.3947 0.1005 0.9133
vn 0.2942 0.6707 0.6809
vn 0.6942 0.7053 -0.1441
vn 0.0723 0.7071 -0.7034
vn 0.0000 0.0000 -1.0000
vn 0.2032 0.0000 -0.9791
vn 0.2135 0.7071 -0.6741
vn 0.3967 0.0000 -0.9180
vn 0.3446 0.7071 -0.6175
vn 0.5718 0.0000 -0.8204
vn 0.4601 0.7071 -0.5369
vn 0.7219 0.0000 -0.6920
vn 0.5559 0.7071 -0.4370
vn 0.8421 0.0000 -0.5393
vn 0.6294 0.7071 -0.3222
vn 0.9294 0.0000 -0.3690
vn 0.6790 0.7071 -0.1973
vn 0.9823 0.0000 -0.1873
vn 0.7040 0.7071 -0.0664
vn 1.0000 0.0000 0.0000
vn 0.7040 0.7071 0.0664
vn 0.9823 0.0000 0.1873
vn 0.6790 0.7071 0.1973
vn 0.9294 0.0000 0.3690
vn 0.6294 0.7071 0.3222
vn 0.8421 0.0000 0.5393
vn 0.5559 0.7071 0.4370
vn 0.7219 0.0000 0.6920
vn 0.4601 0.7071 0.5369
vn 0.5718 0.0000 0.8204
vn 0.3446 0.7071 0.6175
vn 0.3967 0.0000 0.9180
vn 0.2135 0.7071 0.6741
vn -0.0723 0.7071 -0.7034
vn 0.1023 0.0000 -0.9948
vn -0.1023 0.0000 -0.9948
usemtl Material.043
s off
f 52/1/1 57/2/1 18/3/1 17/4/1
f 57/2/1 63/5/1 19/6/1 18/3/1
f 87/7/1 93/8/1 24/9/1 23/10/1
f 93/8/1 99/11/1 25/12/1 24/9/1
f 105/13/1 111/14/1 27/15/1 26/16/1
f 111/14/1 117/17/1 28/18/1 27/15/1
f 129/19/1 135/20/1 31/21/1 30/22/1
f 135/20/1 141/23/1 32/24/1 31/21/1
f 32/24/2 1/25/2 33/26/2 2/27/2
f 2/27/3 33/26/3 34/28/3 3/29/3
f 3/29/4 34/28/4 35/30/4 4/31/4
f 4/31/5 35/30/5 36/32/5 5/33/5
f 5/33/6 36/32/6 37/34/6 6/35/6
f 6/35/7 37/34/7 38/36/7 7/37/7
f 7/37/8 38/36/8 39/38/8 8/39/8
f 8/39/9 39/38/9 40/40/9 9/41/9
f 9/41/10 40/40/10 41/42/10 10/43/10
f 10/43/11 41/42/11 42/44/11 11/45/11
f 11/45/12 42/44/12 43/46/12 12/47/12
f 12/47/13 43/46/13 44/48/13 13/49/13
f 13/49/14 44/48/14 45/50/14 14/51/14
f 14/51/15 45/50/15 46/52/15 15/53/15
f 15/53/16 46/52/16 47/54/16 16/55/16
f 56/56/17 60/57/17 67/58/17 64/59/17
f 16/55/18 47/54/18 48/60/18 49/61/18
f 173/62/1 52/63/1 17/64/1 49/61/1
f 17/65/19 18/66/19 19/67/19 20/68/19 21/69/19 22/70/19 180/71/19 23/72/19 24/73/19 25/74/19 26/75/19 27/76/19 28/77/19 29/78/19 30/79/19 31/80/19 32/81/19 2/82/19 3/83/19 4/84/19 5/85/19 6/86/19 7/87/19 8/88/19 9/89/19 10/90/19 11/91/19 12/92/19 13/93/19 14/94/19 15/95/19 16/96/19 49/97/19
f 59/98/20 53/99/20 176/100/20 170/101/20 168/102/20 166/103/20 164/104/20 162/105/20 160/106/20 158/107/20 156/108/20 154/109/20 152/110/20 150/111/20 148/112/20 146/113/20 144/114/20 142/115/20 177/116/20 137/117/20 131/118/20 125/119/20 119/120/20 113/121/20 107/122/20 101/123/20 95/124/20 89/125/20 182/126/20 83/127/20 77/128/20 71/129/20 65/130/20
f 62/131/21 66/132/21 73/133/21 70/134/21
f 68/135/22 72/136/22 79/137/22 76/138/22
f 74/139/23 78/140/23 85/141/23 82/142/23
f 183/143/24 181/144/24 91/145/24 88/146/24
f 86/147/25 90/148/25 97/149/25 94/150/25
f 92/151/26 96/152/26 103/153/26 100/154/26
f 98/155/27 102/156/27 109/157/27 106/158/27
f 104/159/28 108/160/28 115/161/28 112/162/28
f 110/163/29 114/164/29 121/165/29 118/166/29
f 116/167/30 120/168/30 127/169/30 124/170/30
f 122/171/31 126/172/31 133/173/31 130/174/31
f 128/175/32 132/176/32 139/177/32 136/178/32
f 134/179/33 138/180/33 179/181/33 140/182/33
f 141/23/1 178/183/1 1/25/1 32/24/1
f 178/184/1 143/185/1 33/186/1 1/187/1
f 143/185/1 145/188/1 34/189/1 33/186/1
f 145/188/1 147/190/1 35/191/1 34/189/1
f 147/190/1 149/192/1 36/193/1 35/191/1
f 149/192/1 151/194/1 37/195/1 36/193/1
f 151/194/1 153/196/1 38/197/1 37/195/1
f 153/196/1 155/198/1 39/199/1 38/197/1
f 155/198/1 157/200/1 40/201/1 39/199/1
f 157/200/1 159/202/1 41/203/1 40/201/1
f 159/202/1 161/204/1 42/205/1 41/203/1
f 161/204/1 163/206/1 43/207/1 42/205/1
f 163/206/1 165/208/1 44/209/1 43/207/1
f 165/208/1 167/210/1 45/211/1 44/209/1
f 167/210/1 169/212/1 46/213/1 45/211/1
f 169/212/1 171/214/1 47/215/1 46/213/1
f 171/214/1 175/216/1 48/217/1 47/215/1
f 175/218/1 173/62/1 49/61/1 48/60/1
f 50/219/34 51/220/34 52/63/34
f 53/99/35 54/221/35 55/222/35
f 56/56/36 57/2/36 58/223/36
f 59/98/37 60/224/37 61/225/37
f 62/131/38 63/5/38 64/59/38
f 65/130/39 66/226/39 67/227/39
f 68/135/40 69/228/40 70/134/40
f 71/129/41 72/229/41 73/230/41
f 74/139/42 75/231/42 76/138/42
f 77/128/43 78/232/43 79/233/43
f 80/234/44 81/235/44 82/142/44
f 83/127/45 84/236/45 85/237/45
f 86/147/46 87/7/46 88/146/46
f 89/125/47 90/238/47 91/239/47
f 92/151/48 93/8/48 94/150/48
f 95/124/49 96/240/49 97/241/49
f 98/155/50 99/11/50 100/154/50
f 101/123/51 102/242/51 103/243/51
f 104/159/52 105/13/52 106/158/52
f 107/122/53 108/244/53 109/245/53
f 110/163/54 111/14/54 112/162/54
f 113/121/55 114/246/55 115/247/55
f 116/167/56 117/17/56 118/166/56
f 119/120/57 120/248/57 121/249/57
f 122/171/58 123/250/58 124/170/58
f 125/119/59 126/251/59 127/252/59
f 128/175/60 129/19/60 130/174/60
f 131/118/61 132/253/61 133/254/61
f 134/179/62 135/20/62 136/178/62
f 137/117/63 138/255/63 139/256/63
f 174/257/64 175/218/64 176/258/64
f 177/116/64 178/184/64 179/259/64
f 61/225/65 54/221/65 53/99/65 59/98/65
f 50/219/66 55/260/66 54/261/66 51/220/66
f 60/57/67 56/56/67 58/223/67 61/262/67
f 67/227/68 60/224/68 59/98/68 65/130/68
f 66/132/69 62/131/69 64/59/69 67/58/69
f 73/230/70 66/226/70 65/130/70 71/129/70
f 72/136/71 68/135/71 70/134/71 73/133/71
f 79/233/72 72/229/72 71/129/72 77/128/72
f 78/140/73 74/139/73 76/138/73 79/137/73
f 85/237/74 78/232/74 77/128/74 83/127/74
f 84/263/75 80/234/75 82/142/75 85/141/75
f 181/264/76 84/236/76 83/127/76 182/126/76
f 90/148/77 86/147/77 88/146/77 91/145/77
f 97/241/78 90/238/78 89/125/78 95/124/78
f 96/152/79 92/151/79 94/150/79 97/149/79
f 103/243/80 96/240/80 95/124/80 101/123/80
f 102/156/81 98/155/81 100/154/81 103/153/81
f 109/245/82 102/242/82 101/123/82 107/122/82
f 108/160/83 104/159/83 106/158/83 109/157/83
f 115/247/84 108/244/84 107/122/84 113/121/84
f 114/164/85 110/163/85 112/162/85 115/161/85
f 121/249/86 114/246/86 113/121/86 119/120/86
f 120/168/87 116/167/87 118/166/87 121/165/87
f 127/252/88 120/248/88 119/120/88 125/119/88
f 126/172/89 122/171/89 124/170/89 127/169/89
f 133/254/90 126/251/90 125/119/90 131/118/90
f 132/176/91 128/175/91 130/174/91 133/173/91
f 139/256/92 132/253/92 131/118/92 137/117/92
f 138/180/93 134/179/93 136/178/93 139/177/93
f 179/259/94 138/255/94 137/117/94 177/116/94
f 55/222/95 174/265/95 176/100/95 53/99/95
f 51/266/96 58/223/96 57/2/96 52/1/96
f 56/56/17 64/59/17 63/5/17 57/2/17
f 62/131/21 70/134/21 69/228/21 63/5/21
f 68/135/22 76/138/22 75/231/22 69/228/22
f 74/139/23 82/142/23 81/235/23 75/231/23
f 183/143/24 88/146/24 87/7/24 184/267/24
f 86/147/25 94/150/25 93/8/25 87/7/25
f 92/151/26 100/154/26 99/11/26 93/8/26
f 98/155/27 106/158/27 105/13/27 99/11/27
f 104/159/28 112/162/28 111/14/28 105/13/28
f 110/163/29 118/166/29 117/17/29 111/14/29
f 116/167/30 124/170/30 123/250/30 117/17/30
f 122/171/31 130/174/31 129/19/31 123/250/31
f 128/175/32 136/178/32 135/20/32 129/19/32
f 134/179/33 140/182/33 141/23/33 135/20/33
f 178/183/33 141/23/33 140/182/33 179/181/33
f 143/185/20 178/184/20 177/116/20 142/115/20
f 145/188/20 143/185/20 142/115/20 144/114/20
f 147/190/20 145/188/20 144/114/20 146/113/20
f 149/192/20 147/190/20 146/113/20 148/112/20
f 151/194/20 149/192/20 148/112/20 150/111/20
f 153/196/20 151/194/20 150/111/20 152/110/20
f 155/198/20 153/196/20 152/110/20 154/109/20
f 157/200/20 155/198/20 154/109/20 156/108/20
f 159/202/20 157/200/20 156/108/20 158/107/20
f 161/204/20 159/202/20 158/107/20 160/106/20
f 163/206/20 161/204/20 160/106/20 162/105/20
f 165/208/20 163/206/20 162/105/20 164/104/20
f 167/210/20 165/208/20 164/104/20 166/103/20
f 169/212/20 167/210/20 166/103/20 168/102/20
f 171/214/20 169/212/20 168/102/20 170/101/20
f 175/216/20 171/214/20 170/101/20 176/100/20
f 174/257/97 172/268/97 173/62/97 175/218/97
f 172/268/97 50/219/97 52/63/97 173/62/97
f 172/268/97 174/257/97 55/260/97 50/219/97
f 80/234/24 183/143/24 184/267/24 81/235/24
f 91/239/76 181/264/76 182/126/76 89/125/76
f 80/234/24 84/263/24 181/144/24 183/143/24
usemtl (null)
f 63/5/1 69/228/1 20/269/1 19/6/1
f 69/228/1 75/231/1 21/270/1 20/269/1
f 75/231/1 81/235/1 22/271/1 21/270/1
f 184/267/1 87/7/1 23/10/1 180/272/1
f 99/11/1 105/13/1 26/16/1 25/12/1
f 117/17/1 123/250/1 29/273/1 28/18/1
f 123/250/1 129/19/1 30/22/1 29/273/1
f 51/266/96 54/274/96 61/262/96 58/223/96
f 81/235/1 184/267/1 180/272/1 22/271/1
